<svg aria-hidden="true" style="position: absolute; width: 0; height: 0; overflow: hidden;" version="1.1" xmlns="http://www.w3.org/2000/svg" xmlns:xlink="http://www.w3.org/1999/xlink">
<defs>
<symbol id="car" viewBox="0 0 73 32">
<path d="M1.235 31.996v-2.146h4.864l-1.525-3.401-1.144-0.076c-1.944-0.122-3.336-1.452-3.378-3.374-0.053-2.573-0.099-5.15 0.042-7.716 0.034-0.656 0.644-1.464 1.224-1.883 3.256-2.345 6.988-3.526 10.911-3.831 2.935-0.229 5.272-1.022 7.564-3.076 4.373-4.036 10.241-6.512 16.686-6.512 0.433 0 0.864 0.011 1.291 0.033l-0.060-0.002c5.566 0.21 11.147 0.042 16.721 0.042h1.609v2.234l-1.311 0.175 2.345 6.908c1.784-0.351 3.568-0.595 5.295-1.071 1.605-0.438 1.906-1.106 1.708-2.771-0.149-1.771-1.623-3.152-3.42-3.152-0.051 0-0.102 0.001-0.152 0.003l0.007-0h-2.051v-2.284c2.47 0 4.891-0.061 7.304 0.038 0.745 0.068 1.41 0.366 1.933 0.823l-0.004-0.003c2.562 2.226 4.293 4.933 4.411 8.444 0.042 1.239 0.019 2.478 0 3.717-0.019 1.327 0.381 2.558 0.652 3.831 0.21 0.944 0.33 2.029 0.33 3.141s-0.12 2.197-0.349 3.241l0.018-0.1c-0.435 1.994-2.264 3.202-4.327 3.076-2.261-0.141-3.789 0.351-4.354 2.703-0.136 0.291-0.292 0.541-0.475 0.77l0.006-0.008h3.869v2.207zM24.017 26.377c-1.731 0-3.301-0.030-4.868 0.023-0.402 0.020-0.755 0.216-0.985 0.512l-0.002 0.003c-0.492 0.915-0.843 1.864-1.254 2.821h36.083c-0.381-0.793-0.9-1.468-1.067-2.219-0.229-1.041-0.793-1.17-1.715-1.167-5.905 0.038-11.818 0-17.715 0h-1.464v-2.287h17.041c0.114-0.507 0.202-0.965 0.32-1.418 0.907-3.431 2.81-6.023 6.305-7.159 2.619-0.85 5.2-0.572 7.861 0.091 1.887 0.469 3.927 0.381 5.901 0.381 0.454 0 0.915-0.469 1.372-0.724l0.061-0.381c-2.085 0.53-2.413-0.762-2.695-2.173-0.194-0.98-0.499-1.933-0.728-2.905-0.248-1.064 0.164-1.67 1.281-1.708 0.595-0.023 1.189 0 1.986 0-1.060-2.318-1.83-4.521-4.35-5.768 0.324 0.865 0.579 1.426 0.762 2.013 0.926 3.244-0.019 5.211-3.221 6.191-1.584 0.534-3.411 0.87-5.307 0.929l-0.030 0.001c-11.818 0.088-23.636 0.069-35.435 0.042-0.477 0-1.201-0.343-1.357-0.717s0.126-1.087 0.438-1.472c0.785-0.961 1.693-1.822 2.55-2.722l-0.259-0.267c-1.677 1.456-3.32 2.951-5.063 4.342-0.55 0.427-1.219 0.728-1.95 0.847l-0.025 0.003c-2.207 0.328-4.426 0.621-6.649 0.762-2.417 0.16-3.141 1.818-3.812 3.908 3.458-1.525 6.809-1.754 10.114-0.301 3.511 1.525 4.979 4.628 5.65 8.162l2.23 0.118zM40.181 2.36v6.79h14.41c-0.793-2.181-1.506-4.232-2.31-6.248-0.234-0.305-0.596-0.503-1.005-0.511l-0.001-0c-3.66-0.046-7.319-0.030-11.105-0.030zM24.475 9.107h13.232v-6.702c-5.806-0.576-9.203 3.313-13.232 6.702zM16.042 25.18c-0.024-2.508-2.063-4.532-4.575-4.532-2.527 0-4.575 2.048-4.575 4.575s2.048 4.575 4.575 4.575c0.032 0 0.064-0 0.096-0.001l-0.005 0c2.487-0.051 4.483-2.079 4.483-4.574 0-0.015-0-0.030-0-0.045l0 0.002zM62.933 25.18c-0.018-2.513-2.059-4.543-4.575-4.543-2.527 0-4.575 2.048-4.575 4.575s2.048 4.575 4.575 4.575c0.028 0 0.056-0 0.084-0.001l-0.004 0c2.492-0.045 4.495-2.076 4.495-4.574 0-0.007 0-0.014-0-0.021v0.001zM18.882 24.234l0.358-0.335c-0.477-4.373-3.793-6.957-8.543-6.652-3.923 0.252-6.923 3.183-6.885 7.251 0.53-0.568 0.93-0.82 1.067-1.174 1.224-3.183 3.553-4.956 6.599-4.956s5.413 1.788 6.614 4.956c0.122 0.343 0.515 0.606 0.789 0.911zM65.773 24.234l0.381-0.328c-0.381-4.235-3.587-6.835-8.223-6.679-4.079 0.137-7.171 3.023-7.243 7.243 0.538-0.549 0.949-0.789 1.087-1.144 1.266-3.263 3.614-5.021 6.725-4.979 2.981 0.042 5.337 1.849 6.481 4.925 0.212 0.374 0.469 0.693 0.771 0.965l0.003 0.003zM66.714 18.55l2.127 5.398c2.192-0.271 2.608-3.111 1.765-6.1zM2.436 17.289v2.604l1.967-2.604zM69.917 29.823h2.070v2.177h-2.070z"></path>
<path d="M34.394 14.83v-2.101h2.173v2.101zM53.703 14.868h-2.131v-2.116h2.131zM28.523 26.327h-2.097v-2.173h2.097zM14.906 25.275c-0.026 1.875-1.552 3.385-3.431 3.385-1.895 0-3.431-1.536-3.431-3.431s1.536-3.431 3.431-3.431h0c0 0 0 0 0 0 1.895 0 3.431 1.536 3.431 3.431 0 0.016-0 0.032-0 0.048l0-0.002zM11.475 23.602c-0.526 0.762-1.102 1.243-1.029 1.578 0.099 0.446 0.701 0.785 1.087 1.167 0.362-0.381 1.003-0.721 1.010-1.087-0.011-0.438-0.553-0.884-1.087-1.658zM61.797 25.161c0 0.016 0 0.034 0 0.052 0 1.895-1.536 3.431-3.431 3.431s-3.431-1.536-3.431-3.431c0-1.864 1.486-3.381 3.338-3.43l0.005-0c0.021-0 0.045-0.001 0.069-0.001 1.88 0 3.409 1.504 3.449 3.375l0 0.004zM59.986 25.092c-0.82-0.465-1.311-0.965-1.746-0.923-0.381 0.038-1.003 0.827-0.919 1.083 0.218 0.499 0.65 0.87 1.178 1l0.012 0.002c0.343 0.050 0.766-0.557 1.475-1.148z"></path>
</symbol>
<symbol id="ecar" viewBox="0 0 93 32">
<path d="M48.562 3.58h-19.245l-1.202-3.58h19.245zM53.673 17.79h-19.245l-1.199-3.58h19.245zM58.784 32h-19.245l-1.199-3.58h19.245zM27.842 32h-25.318c-1.052 0-1.916-0.495-2.309-1.325s-0.235-1.81 0.427-2.627l24.045-28.048 11.672 32h-4.384l-8.857-24.864-18.168 21.283h21.753l1.139 3.58zM69.59 22.805l-3.106 0.595c-0.324-0.658-0.736-1.155-1.237-1.488s-1.065-0.501-1.692-0.501c-0.835 0-1.405 0.289-1.716 0.864s-0.246 1.537 0.188 2.889c0.486 1.502 1.079 2.56 1.783 3.18s1.481 0.929 2.332 0.929c0.636 0 1.097-0.181 1.385-0.542s0.374-0.982 0.255-1.864l3.469 0.559c0.145 1.508-0.141 2.647-0.862 3.417s-1.893 1.155-3.52 1.155c-1.851 0-3.513-0.584-4.99-1.75-1.477-1.168-2.549-2.784-3.216-4.847-0.676-2.088-0.649-3.715 0.078-4.876 0.727-1.164 2.032-1.745 3.914-1.745 1.54 0 2.873 0.331 3.997 0.994 1.121 0.665 2.101 1.674 2.938 3.032zM74.665 22.924l-3.213-0.546c-0.054-1.222 0.242-2.128 0.886-2.714 0.644-0.589 1.788-0.882 3.43-0.882 1.493 0 2.661 0.177 3.507 0.53 0.844 0.354 1.504 0.801 1.978 1.345s0.944 1.542 1.414 2.996l1.226 3.907c0.36 1.112 0.678 1.931 0.956 2.459s0.66 1.094 1.15 1.696h-3.312c-0.159-0.222-0.374-0.553-0.642-0.989-0.119-0.199-0.201-0.329-0.246-0.394-0.392 0.555-0.868 0.973-1.43 1.251s-1.211 0.416-1.949 0.416c-1.302 0-2.444-0.354-3.422-1.061s-1.643-1.6-1.992-2.681c-0.231-0.714-0.266-1.352-0.105-1.911s0.501-0.989 1.020-1.287c0.519-0.298 1.323-0.557 2.41-0.781 1.47-0.293 2.464-0.568 2.985-0.821l-0.107-0.333c-0.208-0.642-0.515-1.101-0.922-1.376-0.405-0.273-1.049-0.412-1.931-0.412-0.595 0-1.023 0.116-1.28 0.351-0.257 0.237-0.394 0.649-0.412 1.235zM80.020 25.64c-0.383 0.143-1.007 0.313-1.871 0.512s-1.41 0.394-1.634 0.584c-0.336 0.309-0.427 0.703-0.273 1.179 0.152 0.468 0.457 0.873 0.917 1.215 0.459 0.342 0.96 0.512 1.499 0.512 0.604 0 1.114-0.199 1.535-0.595 0.307-0.302 0.454-0.671 0.441-1.108-0.004-0.286-0.136-0.83-0.396-1.631l-0.219-0.669zM91.775 31.714h-3.348l-4.088-12.648h3.108l0.582 1.799c0.257-0.85 0.555-1.41 0.893-1.678 0.338-0.271 0.776-0.405 1.316-0.405 0.763 0 1.564 0.21 2.408 0.631l-0.094 2.918c-0.683-0.365-1.264-0.548-1.75-0.548-0.468 0-0.823 0.13-1.065 0.387s-0.347 0.725-0.316 1.399c0.031 0.676 0.396 2.088 1.090 4.241l1.264 3.905z"></path>
</symbol>
</defs>
</svg>
