<svg aria-hidden="true" style="position: absolute; width: 0; height: 0; overflow: hidden;" version="1.1" xmlns="http://www.w3.org/2000/svg" xmlns:xlink="http://www.w3.org/1999/xlink">
<defs>
<symbol id="car" viewBox="0 0 73 32">
<path d="M1.235 31.996v-2.146h4.864l-1.525-3.401-1.144-0.076c-1.944-0.122-3.336-1.452-3.378-3.374-0.053-2.573-0.099-5.15 0.042-7.716 0.034-0.656 0.644-1.464 1.224-1.883 3.256-2.345 6.988-3.526 10.911-3.831 2.935-0.229 5.272-1.022 7.564-3.076 4.373-4.036 10.241-6.512 16.686-6.512 0.433 0 0.864 0.011 1.291 0.033l-0.060-0.002c5.566 0.21 11.147 0.042 16.721 0.042h1.609v2.234l-1.311 0.175 2.345 6.908c1.784-0.351 3.568-0.595 5.295-1.071 1.605-0.438 1.906-1.106 1.708-2.771-0.149-1.771-1.623-3.152-3.42-3.152-0.051 0-0.102 0.001-0.152 0.003l0.007-0h-2.051v-2.284c2.47 0 4.891-0.061 7.304 0.038 0.745 0.068 1.41 0.366 1.933 0.823l-0.004-0.003c2.562 2.226 4.293 4.933 4.411 8.444 0.042 1.239 0.019 2.478 0 3.717-0.019 1.327 0.381 2.558 0.652 3.831 0.21 0.944 0.33 2.029 0.33 3.141s-0.12 2.197-0.349 3.241l0.018-0.1c-0.435 1.994-2.264 3.202-4.327 3.076-2.261-0.141-3.789 0.351-4.354 2.703-0.136 0.291-0.292 0.541-0.475 0.77l0.006-0.008h3.869v2.207zM24.017 26.377c-1.731 0-3.301-0.030-4.868 0.023-0.402 0.020-0.755 0.216-0.985 0.512l-0.002 0.003c-0.492 0.915-0.843 1.864-1.254 2.821h36.083c-0.381-0.793-0.9-1.468-1.067-2.219-0.229-1.041-0.793-1.17-1.715-1.167-5.905 0.038-11.818 0-17.715 0h-1.464v-2.287h17.041c0.114-0.507 0.202-0.965 0.32-1.418 0.907-3.431 2.81-6.023 6.305-7.159 2.619-0.85 5.2-0.572 7.861 0.091 1.887 0.469 3.927 0.381 5.901 0.381 0.454 0 0.915-0.469 1.372-0.724l0.061-0.381c-2.085 0.53-2.413-0.762-2.695-2.173-0.194-0.98-0.499-1.933-0.728-2.905-0.248-1.064 0.164-1.67 1.281-1.708 0.595-0.023 1.189 0 1.986 0-1.060-2.318-1.83-4.521-4.35-5.768 0.324 0.865 0.579 1.426 0.762 2.013 0.926 3.244-0.019 5.211-3.221 6.191-1.584 0.534-3.411 0.87-5.307 0.929l-0.030 0.001c-11.818 0.088-23.636 0.069-35.435 0.042-0.477 0-1.201-0.343-1.357-0.717s0.126-1.087 0.438-1.472c0.785-0.961 1.693-1.822 2.55-2.722l-0.259-0.267c-1.677 1.456-3.32 2.951-5.063 4.342-0.55 0.427-1.219 0.728-1.95 0.847l-0.025 0.003c-2.207 0.328-4.426 0.621-6.649 0.762-2.417 0.16-3.141 1.818-3.812 3.908 3.458-1.525 6.809-1.754 10.114-0.301 3.511 1.525 4.979 4.628 5.65 8.162l2.23 0.118zM40.181 2.36v6.79h14.41c-0.793-2.181-1.506-4.232-2.31-6.248-0.234-0.305-0.596-0.503-1.005-0.511l-0.001-0c-3.66-0.046-7.319-0.030-11.105-0.030zM24.475 9.107h13.232v-6.702c-5.806-0.576-9.203 3.313-13.232 6.702zM16.042 25.18c-0.024-2.508-2.063-4.532-4.575-4.532-2.527 0-4.575 2.048-4.575 4.575s2.048 4.575 4.575 4.575c0.032 0 0.064-0 0.096-0.001l-0.005 0c2.487-0.051 4.483-2.079 4.483-4.574 0-0.015-0-0.030-0-0.045l0 0.002zM62.933 25.18c-0.018-2.513-2.059-4.543-4.575-4.543-2.527 0-4.575 2.048-4.575 4.575s2.048 4.575 4.575 4.575c0.028 0 0.056-0 0.084-0.001l-0.004 0c2.492-0.045 4.495-2.076 4.495-4.574 0-0.007 0-0.014-0-0.021v0.001zM18.882 24.234l0.358-0.335c-0.477-4.373-3.793-6.957-8.543-6.652-3.923 0.252-6.923 3.183-6.885 7.251 0.53-0.568 0.93-0.82 1.067-1.174 1.224-3.183 3.553-4.956 6.599-4.956s5.413 1.788 6.614 4.956c0.122 0.343 0.515 0.606 0.789 0.911zM65.773 24.234l0.381-0.328c-0.381-4.235-3.587-6.835-8.223-6.679-4.079 0.137-7.171 3.023-7.243 7.243 0.538-0.549 0.949-0.789 1.087-1.144 1.266-3.263 3.614-5.021 6.725-4.979 2.981 0.042 5.337 1.849 6.481 4.925 0.212 0.374 0.469 0.693 0.771 0.965l0.003 0.003zM66.714 18.55l2.127 5.398c2.192-0.271 2.608-3.111 1.765-6.1zM2.436 17.289v2.604l1.967-2.604zM69.917 29.823h2.070v2.177h-2.070z"></path>
<path d="M34.394 14.83v-2.101h2.173v2.101zM53.703 14.868h-2.131v-2.116h2.131zM28.523 26.327h-2.097v-2.173h2.097zM14.906 25.275c-0.026 1.875-1.552 3.385-3.431 3.385-1.895 0-3.431-1.536-3.431-3.431s1.536-3.431 3.431-3.431h0c0 0 0 0 0 0 1.895 0 3.431 1.536 3.431 3.431 0 0.016-0 0.032-0 0.048l0-0.002zM11.475 23.602c-0.526 0.762-1.102 1.243-1.029 1.578 0.099 0.446 0.701 0.785 1.087 1.167 0.362-0.381 1.003-0.721 1.010-1.087-0.011-0.438-0.553-0.884-1.087-1.658zM61.797 25.161c0 0.016 0 0.034 0 0.052 0 1.895-1.536 3.431-3.431 3.431s-3.431-1.536-3.431-3.431c0-1.864 1.486-3.381 3.338-3.43l0.005-0c0.021-0 0.045-0.001 0.069-0.001 1.88 0 3.409 1.504 3.449 3.375l0 0.004zM59.986 25.092c-0.82-0.465-1.311-0.965-1.746-0.923-0.381 0.038-1.003 0.827-0.919 1.083 0.218 0.499 0.65 0.87 1.178 1l0.012 0.002c0.343 0.050 0.766-0.557 1.475-1.148z"></path>
</symbol>
<symbol id="ecar" viewBox="0 0 93 32">
<path d="M48.562 3.58h-19.245l-1.202-3.58h19.245zM53.673 17.79h-19.245l-1.199-3.58h19.245zM58.784 32h-19.245l-1.199-3.58h19.245zM27.842 32h-25.318c-1.052 0-1.916-0.495-2.309-1.325s-0.235-1.81 0.427-2.627l24.045-28.048 11.672 32h-4.384l-8.857-24.864-18.168 21.283h21.753l1.139 3.58zM69.59 22.805l-3.106 0.595c-0.324-0.658-0.736-1.155-1.237-1.488s-1.065-0.501-1.692-0.501c-0.835 0-1.405 0.289-1.716 0.864s-0.246 1.537 0.188 2.889c0.486 1.502 1.079 2.56 1.783 3.18s1.481 0.929 2.332 0.929c0.636 0 1.097-0.181 1.385-0.542s0.374-0.982 0.255-1.864l3.469 0.559c0.145 1.508-0.141 2.647-0.862 3.417s-1.893 1.155-3.52 1.155c-1.851 0-3.513-0.584-4.99-1.75-1.477-1.168-2.549-2.784-3.216-4.847-0.676-2.088-0.649-3.715 0.078-4.876 0.727-1.164 2.032-1.745 3.914-1.745 1.54 0 2.873 0.331 3.997 0.994 1.121 0.665 2.101 1.674 2.938 3.032zM74.665 22.924l-3.213-0.546c-0.054-1.222 0.242-2.128 0.886-2.714 0.644-0.589 1.788-0.882 3.43-0.882 1.493 0 2.661 0.177 3.507 0.53 0.844 0.354 1.504 0.801 1.978 1.345s0.944 1.542 1.414 2.996l1.226 3.907c0.36 1.112 0.678 1.931 0.956 2.459s0.66 1.094 1.15 1.696h-3.312c-0.159-0.222-0.374-0.553-0.642-0.989-0.119-0.199-0.201-0.329-0.246-0.394-0.392 0.555-0.868 0.973-1.43 1.251s-1.211 0.416-1.949 0.416c-1.302 0-2.444-0.354-3.422-1.061s-1.643-1.6-1.992-2.681c-0.231-0.714-0.266-1.352-0.105-1.911s0.501-0.989 1.020-1.287c0.519-0.298 1.323-0.557 2.41-0.781 1.47-0.293 2.464-0.568 2.985-0.821l-0.107-0.333c-0.208-0.642-0.515-1.101-0.922-1.376-0.405-0.273-1.049-0.412-1.931-0.412-0.595 0-1.023 0.116-1.28 0.351-0.257 0.237-0.394 0.649-0.412 1.235zM80.020 25.64c-0.383 0.143-1.007 0.313-1.871 0.512s-1.41 0.394-1.634 0.584c-0.336 0.309-0.427 0.703-0.273 1.179 0.152 0.468 0.457 0.873 0.917 1.215 0.459 0.342 0.96 0.512 1.499 0.512 0.604 0 1.114-0.199 1.535-0.595 0.307-0.302 0.454-0.671 0.441-1.108-0.004-0.286-0.136-0.83-0.396-1.631l-0.219-0.669zM91.775 31.714h-3.348l-4.088-12.648h3.108l0.582 1.799c0.257-0.85 0.555-1.41 0.893-1.678 0.338-0.271 0.776-0.405 1.316-0.405 0.763 0 1.564 0.21 2.408 0.631l-0.094 2.918c-0.683-0.365-1.264-0.548-1.75-0.548-0.468 0-0.823 0.13-1.065 0.387s-0.347 0.725-0.316 1.399c0.031 0.676 0.396 2.088 1.090 4.241l1.264 3.905z"></path>
</symbol>
<symbol id="euro" viewBox="0 0 79 32">
<path d="M9.984 0h8.141l-1.946 5.325h-8.166zM16.179 5.325h20.070l-1.946 5.35h-20.096zM1.946 21.35h8.166l-1.971 5.325h-8.141zM8.141 26.675h20.096l-1.971 5.35h-20.070zM5.965 10.675h8.141l-1.946 5.325h-8.141zM12.16 16h20.070l-1.946 5.35h-20.070zM35.686 25.293h2.048l-1.459 3.942c-0.387 1.21-1.309 2.149-2.481 2.552l-0.028 0.008c-0.419 0.13-0.9 0.206-1.399 0.206-0.030 0-0.060-0-0.090-0.001l0.005 0c-0.333 0-0.666 0-1.024-0.051s-0.666-0.128-0.87-0.256-0.358-0.333-0.486-0.589c-0.128-0.256-0.179-0.512-0.154-0.768 0.026-0.41 0.102-0.768 0.23-1.101l1.434-3.942h2.048l-1.485 4.045c-0.128 0.358-0.154 0.64 0 0.819 0.102 0.205 0.358 0.307 0.691 0.307 0.358 0 0.666-0.102 0.947-0.282s0.486-0.512 0.614-0.845l1.459-4.045zM36.685 31.898l2.432-6.605h3.379c0.64 0 1.101 0.077 1.382 0.179 0.307 0.102 0.512 0.307 0.589 0.589 0.102 0.307 0.077 0.64-0.077 1.075-0.128 0.358-0.333 0.666-0.589 0.947-0.441 0.457-1.020 0.778-1.671 0.893l-0.019 0.003c0.168 0.059 0.313 0.146 0.436 0.257l-0.001-0.001c0.077 0.051 0.128 0.154 0.205 0.333l0.128 0.41 0.307 1.92h-2.304l-0.358-2.022c-0.051-0.256-0.102-0.435-0.179-0.512-0.128-0.102-0.256-0.154-0.461-0.154h-0.179l-0.973 2.688h-2.048zM40.166 27.981h0.87l0.563-0.102c0.154 0 0.282-0.077 0.41-0.205s0.23-0.23 0.256-0.384c0.102-0.205 0.102-0.358 0-0.486-0.102-0.102-0.333-0.154-0.691-0.154h-0.896l-0.512 1.331zM44.621 28.621c0.384-1.101 1.024-1.92 1.818-2.534 0.819-0.589 1.792-0.896 2.842-0.896 1.101 0 1.843 0.282 2.227 0.896s0.358 1.408-0.026 2.458c-0.282 0.768-0.64 1.408-1.101 1.894-0.857 0.96-2.099 1.562-3.481 1.562-0.018 0-0.037-0-0.055-0l0.003 0c-0.742 0-1.28-0.102-1.715-0.333s-0.64-0.614-0.768-1.126-0.026-1.152 0.256-1.92zM46.669 28.621c-0.256 0.666-0.307 1.152-0.179 1.434 0.154 0.282 0.435 0.435 0.87 0.435 0.442-0.005 0.845-0.169 1.154-0.437l-0.002 0.002c0.358-0.256 0.666-0.768 0.922-1.536 0.256-0.614 0.256-1.075 0.128-1.357s-0.435-0.435-0.87-0.435c-0.433 0.011-0.825 0.174-1.129 0.437l0.002-0.002c-0.42 0.388-0.738 0.88-0.915 1.436l-0.006 0.024zM56.371 25.293h6.195l-0.589 1.638h-2.074l-1.818 4.966h-2.048l1.818-4.966h-2.048l0.589-1.638zM64.896 30.822h-2.304l-0.717 1.075h-2.074l4.864-6.605h2.253l0.051 6.605h-2.125l0.051-1.075zM64.998 29.389l0.154-2.381-1.587 2.381h1.434z"></path>
<path d="M69.581 25.293h2.253l0.41 2.048 1.894-2.048h2.227l-3.226 3.2 0.998 3.405h-2.304l-0.512-2.125-2.074 2.125h-2.304l3.558-3.43-0.922-3.174zM77.312 25.293h2.022l-2.432 6.605h-2.048l2.432-6.605z"></path>
</symbol>
<symbol id="icon-telegram" viewBox="0 0 32 32">
<path d="M24.644 26.387v-0.003l0.024-0.057 3.999-20.16v-0.064c0-0.503-0.187-0.941-0.589-1.204-0.353-0.231-0.76-0.247-1.045-0.225-0.288 0.027-0.554 0.083-0.807 0.167l0.025-0.007c-0.138 0.044-0.244 0.084-0.348 0.128l0.028-0.011-0.017 0.007-22.3 8.748c-0.080 0.027-0.146 0.055-0.209 0.086l0.011-0.005c-0.175 0.079-0.324 0.164-0.465 0.26l0.010-0.007c-0.287 0.197-0.832 0.661-0.74 1.397 0.076 0.611 0.496 0.997 0.78 1.199 0.155 0.11 0.332 0.208 0.519 0.287l0.018 0.007 0.043 0.019 0.013 0.004 0.009 0.004 3.901 1.313c-0.013 0.244 0.011 0.493 0.076 0.74l1.953 7.412c0.234 0.864 1.011 1.489 1.934 1.489 0.826 0 1.535-0.501 1.84-1.215l0.005-0.013 3.051-3.261 5.239 4.016 0.075 0.032c0.476 0.208 0.92 0.273 1.327 0.219 0.407-0.056 0.729-0.227 0.972-0.42 0.277-0.226 0.498-0.509 0.647-0.832l0.006-0.014 0.011-0.023 0.004-0.008zM9.513 18.5c-0.008-0.031-0.013-0.066-0.013-0.102 0-0.142 0.074-0.266 0.185-0.337l0.002-0.001 13.228-8.4s0.779-0.473 0.751 0c0 0 0.139 0.083-0.279 0.471-0.395 0.369-9.428 9.091-10.343 9.973-0.049 0.048-0.085 0.11-0.102 0.179l-0.001 0.003-1.475 5.627z"></path>
</symbol>
<symbol id="icon-viber" viewBox="0 0 32 32">
<path d="M22.687 3.605l0.044 0.009c2.37 0.544 4.248 2.376 4.869 4.765l-0.040-0.181c0.547 2.097 0.837 4.297 0.837 6.565s-0.291 4.468-0.797 6.385l-0.010 0.046c-0.611 2.343-2.489 4.175-4.902 4.728l-0.453 0.1 0.196-0.038c-2.111 0.485-4.309 0.742-6.567 0.742-0.626 0-1.247-0.020-1.778-0.054l-3.641 3.257c-0.118 0.106-0.274 0.17-0.445 0.17-0.329 0-0.602-0.238-0.657-0.556l-0.62-3.701-0.046-0.011c-2.216-0.631-3.953-2.401-4.546-4.682l0.040 0.181c-0.547-2.097-0.837-4.297-0.837-6.565s0.291-4.468 0.798-6.385l0.010-0.046c0.611-2.343 2.489-4.175 4.902-4.728l0.452-0.1-0.196 0.038c2.111-0.485 4.309-0.741 6.566-0.741s4.456 0.256 6.37 0.703zM10.62 8.269c-0.047-0.007-0.102-0.011-0.158-0.011-0.206 0-0.399 0.057-0.563 0.156l0.005-0.003h-0.019c-0.5 0.293-0.951 0.663-1.335 1.097-0.32 0.369-0.493 0.743-0.539 1.103-0.027 0.213-0.008 0.429 0.055 0.633l0.024 0.013c0.36 1.057 0.829 2.075 1.403 3.032 0.782 1.408 1.68 2.623 2.714 3.707l-0.007-0.007 0.032 0.045 0.051 0.037 0.031 0.036 0.037 0.032c1.081 1.029 2.298 1.932 3.618 2.673l0.091 0.047c1.54 0.839 2.475 1.235 3.036 1.4v0.008c0.164 0.051 0.313 0.073 0.464 0.073 0.499-0.038 0.944-0.241 1.287-0.554l-0.002 0.002c0.433-0.384 0.8-0.836 1.085-1.339v-0.009c0.268-0.507 0.177-0.984-0.209-1.308-0.739-0.649-1.56-1.244-2.433-1.759l-0.075-0.041c-0.597-0.324-1.204-0.128-1.449 0.2l-0.524 0.661c-0.269 0.328-0.757 0.283-0.757 0.283l-0.013 0.008c-3.641-0.929-4.613-4.616-4.613-4.616s-0.045-0.501 0.292-0.757l0.656-0.528c0.315-0.256 0.533-0.861 0.196-1.459-0.552-0.948-1.146-1.768-1.811-2.524l0.015 0.017c-0.145-0.178-0.348-0.304-0.58-0.35l-0.006-0.001zM16.772 6.667c-0.368 0-0.667 0.298-0.667 0.667s0.298 0.667 0.667 0.667v0c1.687 0 3.087 0.551 4.195 1.607 0.569 0.577 1.013 1.261 1.304 2.011 0.292 0.751 0.425 1.552 0.391 2.355-0 0.008-0.001 0.018-0.001 0.028 0 0.368 0.299 0.667 0.667 0.667 0.359 0 0.651-0.283 0.667-0.638l0-0.001c0.004-0.089 0.006-0.194 0.006-0.299 0-0.933-0.179-1.825-0.505-2.643l0.017 0.048c-0.381-0.963-0.925-1.785-1.606-2.473l-0.013-0.013c-1.375-1.313-3.115-1.983-5.123-1.983zM16.727 8.859c-0.368 0-0.667 0.298-0.667 0.667s0.298 0.667 0.667 0.667v0h0.023c1.216 0.087 2.101 0.492 2.721 1.157 0.636 0.685 0.965 1.537 0.94 2.591-0 0.005-0 0.010-0 0.015 0 0.368 0.299 0.667 0.667 0.667 0.363 0 0.658-0.29 0.667-0.651v-0.001c0.032-1.383-0.413-2.576-1.296-3.528v-0.003c-0.903-0.968-2.141-1.48-3.632-1.58l-0.023-0.003zM16.701 11.092c-0.018-0.002-0.038-0.003-0.059-0.003-0.368 0-0.667 0.298-0.667 0.667 0 0.364 0.292 0.661 0.655 0.667h0.001c0.557 0.029 0.913 0.197 1.137 0.423 0.225 0.227 0.393 0.591 0.424 1.16 0.007 0.363 0.303 0.654 0.667 0.654 0.368 0 0.667-0.298 0.667-0.667 0-0.021-0.001-0.041-0.003-0.061l0 0.003c-0.043-0.8-0.293-1.507-0.807-2.027-0.516-0.52-1.219-0.773-2.016-0.816z"></path>
</symbol>
<symbol id="icon-whatsapp" viewBox="0 0 32 32">
<path d="M26.88 9.12c-3.84-5.92-11.68-7.68-17.76-4-5.92 3.68-7.84 11.68-4 17.6l0.32 0.48-1.28 4.8 4.8-1.28 0.48 0.32c2.080 1.12 4.32 1.76 6.56 1.76 2.4 0 4.8-0.64 6.88-1.92 5.92-3.84 7.68-11.68 4-17.76zM23.52 21.44c-0.64 0.96-1.44 1.6-2.56 1.76-0.64 0-1.44 0.32-4.64-0.96-2.72-1.28-4.96-3.36-6.56-5.76-0.96-1.12-1.44-2.56-1.6-4 0-1.28 0.48-2.4 1.28-3.2 0.32-0.32 0.64-0.48 0.96-0.48h0.8c0.32 0 0.64 0 0.8 0.64 0.32 0.8 1.12 2.72 1.12 2.88 0.16 0.16 0.16 0.48 0 0.64 0.16 0.32 0 0.64-0.16 0.8s-0.32 0.48-0.48 0.64c-0.32 0.16-0.48 0.48-0.32 0.8 0.64 0.96 1.44 1.92 2.24 2.72 0.96 0.8 1.92 1.44 3.040 1.92 0.32 0.16 0.64 0.16 0.8-0.16s0.96-1.12 1.28-1.44c0.32-0.32 0.48-0.32 0.8-0.16l2.56 1.28c0.32 0.16 0.64 0.32 0.8 0.48 0.16 0.48 0.16 1.12-0.16 1.6z"></path>
</symbol>
</defs>
</svg>
