<svg aria-hidden="true" style="position: absolute; width: 0; height: 0; overflow: hidden;" version="1.1" xmlns="http://www.w3.org/2000/svg" xmlns:xlink="http://www.w3.org/1999/xlink">
<defs>
<symbol id="icon-telegram" viewBox="0 0 32 32">
<path d="M24.644 26.387v-0.003l0.024-0.057 3.999-20.16v-0.064c0-0.503-0.187-0.941-0.589-1.204-0.353-0.231-0.76-0.247-1.045-0.225-0.288 0.027-0.554 0.083-0.807 0.167l0.025-0.007c-0.138 0.044-0.244 0.084-0.348 0.128l0.028-0.011-0.017 0.007-22.3 8.748c-0.080 0.027-0.146 0.055-0.209 0.086l0.011-0.005c-0.175 0.079-0.324 0.164-0.465 0.26l0.010-0.007c-0.287 0.197-0.832 0.661-0.74 1.397 0.076 0.611 0.496 0.997 0.78 1.199 0.155 0.11 0.332 0.208 0.519 0.287l0.018 0.007 0.043 0.019 0.013 0.004 0.009 0.004 3.901 1.313c-0.013 0.244 0.011 0.493 0.076 0.74l1.953 7.412c0.234 0.864 1.011 1.489 1.934 1.489 0.826 0 1.535-0.501 1.84-1.215l0.005-0.013 3.051-3.261 5.239 4.016 0.075 0.032c0.476 0.208 0.92 0.273 1.327 0.219 0.407-0.056 0.729-0.227 0.972-0.42 0.277-0.226 0.498-0.509 0.647-0.832l0.006-0.014 0.011-0.023 0.004-0.008zM9.513 18.5c-0.008-0.031-0.013-0.066-0.013-0.102 0-0.142 0.074-0.266 0.185-0.337l0.002-0.001 13.228-8.4s0.779-0.473 0.751 0c0 0 0.139 0.083-0.279 0.471-0.395 0.369-9.428 9.091-10.343 9.973-0.049 0.048-0.085 0.11-0.102 0.179l-0.001 0.003-1.475 5.627z"></path>
</symbol>
<symbol id="icon-viber" viewBox="0 0 32 32">
<path d="M22.687 3.605l0.044 0.009c2.37 0.544 4.248 2.376 4.869 4.765l-0.040-0.181c0.547 2.097 0.837 4.297 0.837 6.565s-0.291 4.468-0.797 6.385l-0.010 0.046c-0.611 2.343-2.489 4.175-4.902 4.728l-0.453 0.1 0.196-0.038c-2.111 0.485-4.309 0.742-6.567 0.742-0.626 0-1.247-0.020-1.778-0.054l-3.641 3.257c-0.118 0.106-0.274 0.17-0.445 0.17-0.329 0-0.602-0.238-0.657-0.556l-0.62-3.701-0.046-0.011c-2.216-0.631-3.953-2.401-4.546-4.682l0.040 0.181c-0.547-2.097-0.837-4.297-0.837-6.565s0.291-4.468 0.798-6.385l0.010-0.046c0.611-2.343 2.489-4.175 4.902-4.728l0.452-0.1-0.196 0.038c2.111-0.485 4.309-0.741 6.566-0.741s4.456 0.256 6.37 0.703zM10.62 8.269c-0.047-0.007-0.102-0.011-0.158-0.011-0.206 0-0.399 0.057-0.563 0.156l0.005-0.003h-0.019c-0.5 0.293-0.951 0.663-1.335 1.097-0.32 0.369-0.493 0.743-0.539 1.103-0.027 0.213-0.008 0.429 0.055 0.633l0.024 0.013c0.36 1.057 0.829 2.075 1.403 3.032 0.782 1.408 1.68 2.623 2.714 3.707l-0.007-0.007 0.032 0.045 0.051 0.037 0.031 0.036 0.037 0.032c1.081 1.029 2.298 1.932 3.618 2.673l0.091 0.047c1.54 0.839 2.475 1.235 3.036 1.4v0.008c0.164 0.051 0.313 0.073 0.464 0.073 0.499-0.038 0.944-0.241 1.287-0.554l-0.002 0.002c0.433-0.384 0.8-0.836 1.085-1.339v-0.009c0.268-0.507 0.177-0.984-0.209-1.308-0.739-0.649-1.56-1.244-2.433-1.759l-0.075-0.041c-0.597-0.324-1.204-0.128-1.449 0.2l-0.524 0.661c-0.269 0.328-0.757 0.283-0.757 0.283l-0.013 0.008c-3.641-0.929-4.613-4.616-4.613-4.616s-0.045-0.501 0.292-0.757l0.656-0.528c0.315-0.256 0.533-0.861 0.196-1.459-0.552-0.948-1.146-1.768-1.811-2.524l0.015 0.017c-0.145-0.178-0.348-0.304-0.58-0.35l-0.006-0.001zM16.772 6.667c-0.368 0-0.667 0.298-0.667 0.667s0.298 0.667 0.667 0.667v0c1.687 0 3.087 0.551 4.195 1.607 0.569 0.577 1.013 1.261 1.304 2.011 0.292 0.751 0.425 1.552 0.391 2.355-0 0.008-0.001 0.018-0.001 0.028 0 0.368 0.299 0.667 0.667 0.667 0.359 0 0.651-0.283 0.667-0.638l0-0.001c0.004-0.089 0.006-0.194 0.006-0.299 0-0.933-0.179-1.825-0.505-2.643l0.017 0.048c-0.381-0.963-0.925-1.785-1.606-2.473l-0.013-0.013c-1.375-1.313-3.115-1.983-5.123-1.983zM16.727 8.859c-0.368 0-0.667 0.298-0.667 0.667s0.298 0.667 0.667 0.667v0h0.023c1.216 0.087 2.101 0.492 2.721 1.157 0.636 0.685 0.965 1.537 0.94 2.591-0 0.005-0 0.010-0 0.015 0 0.368 0.299 0.667 0.667 0.667 0.363 0 0.658-0.29 0.667-0.651v-0.001c0.032-1.383-0.413-2.576-1.296-3.528v-0.003c-0.903-0.968-2.141-1.48-3.632-1.58l-0.023-0.003zM16.701 11.092c-0.018-0.002-0.038-0.003-0.059-0.003-0.368 0-0.667 0.298-0.667 0.667 0 0.364 0.292 0.661 0.655 0.667h0.001c0.557 0.029 0.913 0.197 1.137 0.423 0.225 0.227 0.393 0.591 0.424 1.16 0.007 0.363 0.303 0.654 0.667 0.654 0.368 0 0.667-0.298 0.667-0.667 0-0.021-0.001-0.041-0.003-0.061l0 0.003c-0.043-0.8-0.293-1.507-0.807-2.027-0.516-0.52-1.219-0.773-2.016-0.816z"></path>
</symbol>
<symbol id="icon-whatsapp" viewBox="0 0 32 32">
<path d="M26.88 9.12c-3.84-5.92-11.68-7.68-17.76-4-5.92 3.68-7.84 11.68-4 17.6l0.32 0.48-1.28 4.8 4.8-1.28 0.48 0.32c2.080 1.12 4.32 1.76 6.56 1.76 2.4 0 4.8-0.64 6.88-1.92 5.92-3.84 7.68-11.68 4-17.76zM23.52 21.44c-0.64 0.96-1.44 1.6-2.56 1.76-0.64 0-1.44 0.32-4.64-0.96-2.72-1.28-4.96-3.36-6.56-5.76-0.96-1.12-1.44-2.56-1.6-4 0-1.28 0.48-2.4 1.28-3.2 0.32-0.32 0.64-0.48 0.96-0.48h0.8c0.32 0 0.64 0 0.8 0.64 0.32 0.8 1.12 2.72 1.12 2.88 0.16 0.16 0.16 0.48 0 0.64 0.16 0.32 0 0.64-0.16 0.8s-0.32 0.48-0.48 0.64c-0.32 0.16-0.48 0.48-0.32 0.8 0.64 0.96 1.44 1.92 2.24 2.72 0.96 0.8 1.92 1.44 3.040 1.92 0.32 0.16 0.64 0.16 0.8-0.16s0.96-1.12 1.28-1.44c0.32-0.32 0.48-0.32 0.8-0.16l2.56 1.28c0.32 0.16 0.64 0.32 0.8 0.48 0.16 0.48 0.16 1.12-0.16 1.6z"></path>
</symbol>
<symbol id="icon-vesi" viewBox="0 0 32 32">
<path d="M14.758 2.44c-2.066 0.285-4.1 1.115-5.754 2.357-0.615 0.463-1.679 1.495-2.18 2.11-1.394 1.724-2.313 3.891-2.611 6.134-0.095 0.741-0.133 2.611-0.044 2.611 0.025 0 0.165-0.063 0.304-0.139l0.26-0.139 0.038-1.141c0.038-1.324 0.171-2.116 0.551-3.282 1.432-4.36 5.272-7.452 9.898-7.965 2.085-0.234 4.239 0.146 6.248 1.103 0.393 0.19 0.951 0.494 1.236 0.684l0.532 0.342 0.266-0.158c0.146-0.089 0.247-0.177 0.215-0.203-0.025-0.025-0.323-0.228-0.653-0.444-1.508-0.989-3.396-1.667-5.259-1.901-0.716-0.082-2.294-0.070-3.048 0.032z"></path>
<path d="M18.313 4.74c-0.133 0.095-0.317 0.108-1.413 0.095-1.21-0.019-1.261-0.013-1.552 0.133-0.165 0.082-0.488 0.33-0.722 0.545-0.45 0.412-0.545 0.444-1.667 0.608-0.329 0.051-0.741 0.488-1.071 1.134-0.26 0.526-0.418 0.678-0.855 0.824-0.38 0.127-0.805 0.482-0.938 0.786-0.057 0.139-0.108 0.488-0.127 0.893-0.032 0.697-0.044 0.621 0.425 2.535 0.082 0.336 0.127 0.684 0.114 0.938l-0.019 0.406-2.63 1.806c-2.021 1.381-2.661 1.787-2.756 1.755-0.266-0.082-0.596-0.095-0.729-0.025-0.076 0.038-0.177 0.171-0.228 0.298-0.266 0.627 0.507 1.141 0.995 0.659 0.114-0.12 0.184-0.253 0.184-0.368 0-0.165 0.051-0.196 0.545-0.418 0.304-0.133 0.564-0.228 0.577-0.209 0.019 0.019-0.621 1.977-1.413 4.36l-1.451 4.328-0.551 0.019c-0.684 0.019-0.703 0.070-0.196 0.577 0.577 0.57 1.356 0.874 2.642 1.014 2.129 0.241 4.132-0.184 5.076-1.077 0.469-0.444 0.456-0.501-0.089-0.501h-0.437l-1.502-4.505c-0.824-2.471-1.489-4.512-1.476-4.524 0.019-0.025 2.725-1.267 3.58-1.648l0.329-0.146 0.215 0.45c0.12 0.253 0.444 0.849 0.729 1.324 0.602 1.027 0.678 1.236 0.577 1.705-0.051 0.228-0.057 0.615-0.025 1.191 0.076 1.28 0.063 1.869-0.063 2.573-0.133 0.805-0.152 1.565-0.038 1.705 0.108 0.127 0.425 0.133 0.893 0.013 0.19-0.051 0.691-0.177 1.109-0.285 0.925-0.241 1.616-0.298 2.25-0.196 0.773 0.12 1.464 0.146 1.762 0.070 0.361-0.101 0.798-0.526 0.906-0.887 0.063-0.222 0.063-0.393 0-0.951-0.044-0.368-0.108-0.874-0.139-1.115-0.025-0.247-0.051-0.893-0.051-1.445-0.006-0.805 0.013-1.039 0.095-1.198 0.057-0.114 0.171-0.456 0.26-0.767 0.146-0.539 0.184-0.602 0.678-1.179 0.558-0.653 0.773-0.97 1.153-1.717 0.228-0.444 0.247-0.513 0.247-1.014-0.006-0.748-0.203-1.343-0.608-1.857-0.456-0.583-0.558-0.805-0.602-1.324l-0.038-0.463 2.23-1.521c1.223-0.836 2.256-1.527 2.288-1.54s-0.469 1.54-1.115 3.453c-0.646 1.907-1.204 3.479-1.236 3.492-0.038 0.013-0.063 0.101-0.063 0.19 0 0.095-0.101 0.475-0.228 0.849l-0.228 0.684h-0.532c-0.494 0-0.532 0.013-0.532 0.127 0 0.209 0.475 0.665 0.938 0.906 0.773 0.406 1.825 0.615 3.118 0.615 1.793 0 3.251-0.412 3.998-1.134 0.437-0.418 0.418-0.501-0.114-0.526l-0.431-0.019-1.502-4.467c-0.824-2.459-1.502-4.499-1.502-4.537-0.006-0.038 0.089-0.12 0.203-0.184 0.171-0.089 0.241-0.095 0.349-0.038 0.615 0.33 1.191-0.526 0.678-1.008-0.342-0.323-0.893-0.114-1.020 0.387l-0.070 0.279-0.786 0.361c-0.431 0.196-1.597 0.729-2.592 1.185-1.248 0.57-1.812 0.798-1.825 0.741-0.013-0.051 0.025-0.279 0.082-0.507 0.133-0.589 0.12-1.141-0.032-1.597-0.355-1.020-0.589-1.229-1.394-1.223-0.342 0-0.52 0.032-0.634 0.108zM16.697 5.209c0.558 0.196 1.495 0.203 1.806 0.006 0.234-0.152 0.621-0.19 0.83-0.082 0.26 0.139 0.38 0.532 0.418 1.362 0.032 0.672 0.019 0.868-0.108 1.4-0.19 0.849-0.482 1.648-0.684 1.907l-0.171 0.222-0.444-0.038c-0.399-0.032-0.463-0.051-0.627-0.234-0.177-0.203-0.184-0.209-0.139-0.748 0.025-0.298 0.070-0.989 0.095-1.527 0.025-0.596 0.076-1.039 0.127-1.128 0.070-0.127 0.063-0.171-0.032-0.272-0.152-0.165-0.222-0.152-0.463 0.095l-0.209 0.215 0.139 0.19c0.19 0.26 0.228 1.001 0.127 2.465-0.089 1.293-0.101 1.318-0.653 1.508-0.456 0.152-0.748 0.076-0.843-0.228-0.044-0.12-0.12-0.798-0.184-1.514-0.057-0.71-0.12-1.318-0.139-1.35s-0.051-0.26-0.076-0.507c-0.044-0.494-0.127-0.589-0.298-0.33-0.101 0.158-0.101 0.234-0.038 0.906 0.044 0.412 0.139 1.071 0.209 1.47s0.146 1.001 0.165 1.331l0.032 0.602-0.437 0.298c-0.482 0.329-0.779 0.431-0.887 0.291-0.032-0.044-0.152-0.355-0.253-0.684-0.19-0.596-0.697-1.92-0.881-2.332-0.133-0.279-0.241-0.228-0.279 0.133-0.019 0.165-0.101 0.38-0.177 0.482-0.076 0.108-0.139 0.215-0.139 0.247s0.114 0.209 0.253 0.393c0.304 0.406 0.887 1.584 1.065 2.154 0.215 0.672 0.209 0.843-0.051 0.95-0.101 0.044-0.348 0.203-0.545 0.355s-0.406 0.279-0.463 0.279c-0.133 0-0.374-0.253-0.577-0.602-0.082-0.139-0.425-0.729-0.76-1.305s-0.659-1.166-0.716-1.312c-0.133-0.329-0.139-0.843-0.019-1.077s0.482-0.558 0.672-0.615c0.406-0.12 0.577-0.291 0.862-0.893 0.342-0.71 0.501-0.849 1.242-1.103 0.9-0.304 1.014-0.368 1.508-0.855 0.26-0.26 0.564-0.513 0.665-0.564 0.266-0.139 0.634-0.127 1.077 0.038zM24.903 11.469v3.802h-1.267c-0.697 0-1.267-0.019-1.267-0.044 0-0.063 2.497-7.56 2.516-7.56 0.013 0 0.019 1.711 0.019 3.802zM26.677 11.438c0.672 2.021 1.236 3.713 1.255 3.751 0.019 0.063-0.26 0.082-1.28 0.082h-1.305v-3.815c0-2.186 0.025-3.789 0.057-3.758 0.032 0.038 0.602 1.717 1.274 3.739zM19.922 10.595c0.114 0.355 0.304 0.722 0.577 1.141 0.456 0.684 0.532 0.931 0.539 1.641 0 0.64-0.076 0.735-0.976 1.16-1.052 0.507-1.495 0.57-2.104 0.317-0.114-0.051-0.513-0.133-0.887-0.19-0.735-0.108-1.128-0.247-1.324-0.469-0.101-0.114-0.127-0.228-0.127-0.596 0-0.684 0.076-0.811 0.824-1.299 0.716-0.475 1.058-0.577 2.408-0.722l0.697-0.076 0.019-0.222c0.013-0.146-0.038-0.355-0.139-0.57l-0.158-0.342 0.196-0.146c0.114-0.082 0.222-0.146 0.247-0.146s0.12 0.234 0.209 0.52zM13.719 14.124c0.247 0.114 0.729 0.577 0.729 0.703 0 0.038 0.253 0.329 0.558 0.653 0.83 0.868 0.919 1.046 0.634 1.312-0.114 0.108-0.222 0.127-0.691 0.127-0.659 0-1.616-0.177-2.053-0.387-0.678-0.317-1.090-0.963-0.925-1.438 0.114-0.323 0.545-0.754 0.925-0.938 0.38-0.177 0.494-0.184 0.824-0.032zM15.341 14.467c0.215 0.45 0.469 0.792 0.532 0.729 0.019-0.019-0.006-0.127-0.063-0.241s-0.089-0.215-0.076-0.228c0.019-0.019 0.171 0.051 0.348 0.158 0.342 0.203 1.521 0.475 2.364 0.551 0.748 0.070 0.855 0.184 0.475 0.52-0.564 0.494-1.926 0.722-2.516 0.425-0.387-0.203-1.819-2.015-1.749-2.212 0.025-0.063 0.12-0.101 0.266-0.101 0.209 0 0.228 0.019 0.418 0.399zM18.25 19.789c0.032 2.173 0.051 2.332 0.279 2.243 0.158-0.063 0.19-0.564 0.076-1.179-0.101-0.57-0.139-2.262-0.063-2.75 0.076-0.45 0.184-0.215 0.228 0.501 0.025 0.38 0.089 1.438 0.152 2.351 0.057 0.912 0.089 1.73 0.063 1.819-0.044 0.19-0.444 0.418-0.722 0.418-0.101 0-0.26-0.057-0.349-0.127-0.171-0.133-0.253-0.482-0.329-1.426-0.089-1.090-0.133-1.223-0.285-0.855-0.076 0.19-0.063 0.767 0.038 1.812 0.032 0.279 0.019 0.406-0.038 0.437-0.044 0.032-0.551 0.057-1.122 0.063l-1.033 0.013v-1.61c0-1.724-0.025-1.838-0.279-1.318-0.095 0.19-0.133 0.456-0.171 1.198-0.057 1.058-0.209 1.698-0.45 1.914-0.152 0.133-0.564 0.279-0.798 0.279-0.241 0-0.253-0.437-0.032-1.172 0.19-0.64 0.545-1.781 0.64-2.053 0.146-0.425 0.539-0.786 1.001-0.912 0.209-0.057 0.431-0.108 0.494-0.108 0.082 0 0.101-0.032 0.070-0.114-0.025-0.057-0.063-0.19-0.089-0.291-0.038-0.165-0.082-0.196-0.393-0.266-0.45-0.101-1.179-0.513-1.077-0.615 0.051-0.051 0.127-0.051 0.279 0.006 0.716 0.253 1.901 0.469 2.351 0.431 0.425-0.044 0.526-0.101 1.027-0.551 0.196-0.177 0.387-0.304 0.425-0.291 0.057 0.019 0.082 0.602 0.108 2.154zM8.371 22.096l1.248 3.758h-2.585l0.006-3.853c0-2.116 0.019-3.802 0.038-3.751 0.025 0.051 0.602 1.787 1.293 3.846zM6.59 22.052v3.802h-1.299c-0.716 0-1.299-0.013-1.299-0.025s0.57-1.711 1.267-3.777c0.697-2.066 1.267-3.764 1.267-3.777s0.013-0.025 0.032-0.025c0.019 0 0.032 1.711 0.032 3.802z"></path>
<path d="M18.718 12.578c0.013 0.101 0.057 0.304 0.095 0.444s0.070 0.532 0.070 0.868c0 0.342 0.025 0.621 0.057 0.621 0.101 0 0.133-0.184 0.133-0.722 0-0.545-0.114-1.065-0.285-1.274-0.101-0.12-0.101-0.12-0.070 0.063z"></path>
<path d="M16.602 12.528c-0.209 0.025-0.38 0.114-0.38 0.203 0 0.019 0.234 0.032 0.52 0.019 0.291-0.013 0.602 0.006 0.703 0.044 0.165 0.063 0.171 0.082 0.171 0.558 0 0.272-0.025 0.526-0.051 0.564-0.095 0.152-0.342 0.215-0.817 0.222l-0.494 0.006 0.253 0.082c0.139 0.051 0.444 0.089 0.684 0.089 0.418 0.006 0.431 0 0.551-0.203 0.101-0.165 0.127-0.317 0.127-0.779 0-0.754-0.076-0.855-0.653-0.836-0.215 0-0.494 0.019-0.615 0.032z"></path>
<path d="M27.837 18.11c-0.317 0.158-0.342 0.19-0.501 0.615-1.552 4.119-5.304 7.015-9.733 7.503-1.16 0.133-2.357 0.070-3.612-0.19l-0.615-0.127-0.317 0.158c-0.171 0.089-0.329 0.19-0.348 0.222-0.076 0.114 1.153 0.406 2.307 0.545 2.268 0.279 4.638-0.133 6.748-1.166 2.579-1.261 4.657-3.403 5.798-5.963 0.298-0.653 0.665-1.698 0.627-1.736-0.013-0.013-0.177 0.051-0.355 0.139z"></path>
</symbol>
<symbol id="icon-right" viewBox="0 0 32 32">
<path d="M16.8 16l-6.133-6.133 1.867-1.867 8 8-8 8-1.867-1.867 6.133-6.133z"></path>
</symbol>
<symbol id="icon-phone" viewBox="0 0 32 32">
<path d="M16 29.661c7.46 0 13.661-6.187 13.661-13.661 0-7.46-6.214-13.661-13.674-13.661-7.473 0-13.646 6.201-13.646 13.661 0 7.473 6.187 13.661 13.661 13.661zM16.001 27.384c-6.322 0-11.372-5.063-11.372-11.384 0-6.309 5.036-11.384 11.358-11.384 6.308 0 11.383 5.076 11.397 11.384 0.013 6.322-5.076 11.384-11.384 11.384zM12.785 19.161c3.12 3.134 7.098 5.115 9.455 2.771 0.082-0.081 0.156-0.168 0.223-0.261l0.004-0.006c0.616-0.683 0.79-1.594 0-2.183-0.616-0.442-1.272-0.897-2.384-1.674-0.777-0.549-1.286-0.415-1.888 0.187l-0.536 0.522c-0.161 0.147-0.415 0.134-0.589 0.027-0.469-0.281-1.259-0.911-2.009-1.661-0.737-0.737-1.406-1.567-1.661-2.009-0.094-0.147-0.161-0.389 0.027-0.562l0.522-0.563c0.603-0.629 0.737-1.111 0.174-1.902l-1.647-2.33c-0.563-0.79-1.379-0.643-2.277 0.027-0.067 0.054-0.12 0.107-0.174 0.161-2.357 2.357-0.362 6.335 2.759 9.455z"></path>
</symbol>
<symbol id="icon-Euro-taxi-logo" viewBox="0 0 79 32">
<path d="M9.984 0h8.141l-1.946 5.325h-8.166zM16.179 5.325h20.070l-1.946 5.35h-20.096zM1.946 21.35h8.166l-1.971 5.325h-8.141zM8.141 26.675h20.096l-1.971 5.35h-20.070zM5.965 10.675h8.141l-1.946 5.325h-8.141zM12.16 16h20.070l-1.946 5.35h-20.070zM35.686 25.293h2.048l-1.459 3.942c-0.387 1.21-1.309 2.149-2.481 2.552l-0.028 0.008c-0.419 0.13-0.9 0.206-1.399 0.206-0.030 0-0.060-0-0.090-0.001l0.005 0c-0.333 0-0.666 0-1.024-0.051s-0.666-0.128-0.87-0.256-0.358-0.333-0.486-0.589c-0.128-0.256-0.179-0.512-0.154-0.768 0.026-0.41 0.102-0.768 0.23-1.101l1.434-3.942h2.048l-1.485 4.045c-0.128 0.358-0.154 0.64 0 0.819 0.102 0.205 0.358 0.307 0.691 0.307 0.358 0 0.666-0.102 0.947-0.282s0.486-0.512 0.614-0.845l1.459-4.045zM36.685 31.898l2.432-6.605h3.379c0.64 0 1.101 0.077 1.382 0.179 0.307 0.102 0.512 0.307 0.589 0.589 0.102 0.307 0.077 0.64-0.077 1.075-0.128 0.358-0.333 0.666-0.589 0.947-0.441 0.457-1.020 0.778-1.671 0.893l-0.019 0.003c0.168 0.059 0.313 0.146 0.436 0.257l-0.001-0.001c0.077 0.051 0.128 0.154 0.205 0.333l0.128 0.41 0.307 1.92h-2.304l-0.358-2.022c-0.051-0.256-0.102-0.435-0.179-0.512-0.128-0.102-0.256-0.154-0.461-0.154h-0.179l-0.973 2.688h-2.048zM40.166 27.981h0.87l0.563-0.102c0.154 0 0.282-0.077 0.41-0.205s0.23-0.23 0.256-0.384c0.102-0.205 0.102-0.358 0-0.486-0.102-0.102-0.333-0.154-0.691-0.154h-0.896l-0.512 1.331zM44.621 28.621c0.384-1.101 1.024-1.92 1.818-2.534 0.819-0.589 1.792-0.896 2.842-0.896 1.101 0 1.843 0.282 2.227 0.896s0.358 1.408-0.026 2.458c-0.282 0.768-0.64 1.408-1.101 1.894-0.857 0.96-2.099 1.562-3.481 1.562-0.018 0-0.037-0-0.055-0l0.003 0c-0.742 0-1.28-0.102-1.715-0.333s-0.64-0.614-0.768-1.126-0.026-1.152 0.256-1.92zM46.669 28.621c-0.256 0.666-0.307 1.152-0.179 1.434 0.154 0.282 0.435 0.435 0.87 0.435 0.442-0.005 0.845-0.169 1.154-0.437l-0.002 0.002c0.358-0.256 0.666-0.768 0.922-1.536 0.256-0.614 0.256-1.075 0.128-1.357s-0.435-0.435-0.87-0.435c-0.433 0.011-0.825 0.174-1.129 0.437l0.002-0.002c-0.42 0.388-0.738 0.88-0.915 1.436l-0.006 0.024zM56.371 25.293h6.195l-0.589 1.638h-2.074l-1.818 4.966h-2.048l1.818-4.966h-2.048l0.589-1.638zM64.896 30.822h-2.304l-0.717 1.075h-2.074l4.864-6.605h2.253l0.051 6.605h-2.125l0.051-1.075zM64.998 29.389l0.154-2.381-1.587 2.381h1.434z"></path>
<path d="M69.581 25.293h2.253l0.41 2.048 1.894-2.048h2.227l-3.226 3.2 0.998 3.405h-2.304l-0.512-2.125-2.074 2.125h-2.304l3.558-3.43-0.922-3.174zM77.312 25.293h2.022l-2.432 6.605h-2.048l2.432-6.605z"></path>
</symbol>
</defs>
</svg>
